<?xml version="1.0" standalone="no"?>
<!DOCTYPE svg PUBLIC "-//W3C//DTD SVG 20010904//EN"
 "http://www.w3.org/TR/2001/REC-SVG-20010904/DTD/svg10.dtd">
<svg version="1.0" xmlns="http://www.w3.org/2000/svg"
 width="200.000000pt" height="110.000000pt" viewBox="0 0 200.000000 110.000000"
 preserveAspectRatio="xMidYMid meet">
<metadata>
Created by potrace 1.10, written by Peter Selinger 2001-2011
</metadata>
<g transform="translate(0.000000,110.000000) scale(0.100000,-0.100000)"
fill="#000000" stroke="none">
<path d="M740 975 c-185 -47 -371 -163 -400 -249 -23 -70 23 -120 208 -226 72
-41 126 -78 120 -81 -6 -4 -37 10 -68 32 -95 65 -221 127 -304 150 -164 44
-248 -5 -160 -95 75 -77 214 -120 397 -121 31 0 57 -1 57 -1 0 -1 -46 -28
-102 -59 -178 -101 -218 -159 -138 -197 75 -35 282 -29 399 12 55 20 111 63
111 86 0 8 30 -1 83 -25 103 -48 156 -61 249 -61 155 0 298 60 404 167 74 75
141 195 131 235 -8 28 -34 42 -61 32 -23 -9 -20 -34 5 -34 19 0 21 -4 16 -39
-11 -86 -89 -189 -197 -262 -69 -46 -191 -81 -285 -82 -98 -1 -168 15 -260 59
-60 28 -73 39 -89 74 -10 23 -14 45 -10 49 63 54 105 80 139 86 127 21 307 88
389 144 72 50 84 121 21 121 -37 0 -213 -92 -343 -180 -116 -78 -126 -83 -195
-91 -39 -4 -78 -8 -85 -9 -30 -1 40 74 100 107 168 93 366 244 439 334 52 64
63 87 48 105 -19 23 -51 16 -117 -23 -122 -75 -269 -216 -400 -383 -36 -48
-64 -72 -100 -89 l-50 -23 -83 45 c-137 75 -222 138 -242 179 -16 32 -16 40
-4 70 29 69 155 154 300 203 84 28 214 42 262 27 26 -8 30 -13 29 -44 -1 -42
-48 -117 -138 -218 -36 -41 -61 -77 -55 -79 6 -2 25 14 42 35 162 194 207 266
188 302 -25 47 -110 53 -251 17z m557 -108 c-50 -73 -179 -178 -337 -277 -47
-29 -96 -60 -110 -69 -65 -41 186 231 283 306 74 58 190 119 195 103 2 -6 -12
-35 -31 -63z m103 -217 c0 -21 -89 -93 -155 -125 -63 -30 -229 -85 -259 -85
-6 0 23 23 64 50 175 118 350 198 350 160z m-1025 -96 c65 -23 188 -90 245
-135 l25 -19 -100 1 c-130 2 -233 21 -300 54 -59 28 -108 78 -103 104 7 36
119 34 233 -5z m378 -125 c-12 -12 -26 -18 -33 -14 -8 5 -3 13 16 26 35 23 45
15 17 -12z m-48 -19 c3 -6 -4 -10 -17 -10 -18 0 -20 2 -8 10 19 12 18 12 25 0z
m163 -33 l-43 -33 -27 20 c-16 11 -28 23 -28 27 0 5 24 10 53 12 28 2 60 4 70
5 12 1 2 -11 -25 -31z m-183 -3 c16 -12 17 -18 8 -32 -60 -87 -124 -203 -117
-213 10 -17 -163 -6 -201 12 -42 21 -41 36 3 78 42 38 257 171 276 171 6 0 20
-7 31 -16z m35 6 c0 -5 -4 -10 -9 -10 -6 0 -13 5 -16 10 -3 6 1 10 9 10 9 0
16 -4 16 -10z m88 -46 c1 -1 -3 -6 -10 -12 -19 -15 -73 30 -64 54 6 15 10 14
39 -12 17 -16 33 -29 35 -30z m-64 -51 c-16 -14 -51 -43 -78 -65 -56 -48 -56
-47 3 55 l44 76 30 -21 30 -21 -29 -24z m93 1 c-9 -10 -38 16 -31 28 4 6 13 4
22 -6 9 -8 13 -19 9 -22z m-17 -13 c21 -17 23 -22 12 -45 -6 -14 -26 -35 -44
-46 -29 -18 -54 -27 -161 -57 -10 -2 22 34 70 81 48 47 90 85 93 85 3 1 16 -8
30 -18z"/>
</g>
</svg>
