<?xml version="1.0" encoding="UTF-8"?>
<svg width="163px" height="90px" viewBox="0 0 163 90" version="1.1" xmlns="http://www.w3.org/2000/svg" xmlns:xlink="http://www.w3.org/1999/xlink">
    <!-- Generator: Sketch 40.3 (33839) - http://www.bohemiancoding.com/sketch -->
    <title>Group</title>
    <desc>Created with Sketch.</desc>
    <defs></defs>
    <g id="Page-1" stroke="none" stroke-width="1" fill="none" fill-rule="evenodd">
        <g id="Group" transform="translate(81.500000, 44.500000) scale(1, -1) translate(-81.500000, -44.500000) translate(0.000000, -0.500000)" fill="#FFFFFF">
            <path d="M64,87 C45.5,82.3 26.9,70.7 24,62.1 C21.7,55.1 26.3,50.1 44.8,39.5 C52,35.4 57.4,31.7 56.8,31.4 C56.2,31 53.1,32.4 50,34.6 C40.5,41.1 27.9,47.3 19.6,49.6 C3.2,54 -5.2,49.1 3.6,40.1 C11.1,32.4 25,28.1 43.3,28 C46.4,28 49,27.9 49,27.9 C49,27.8 44.4,25.1 38.8,22 C21,11.9 17,6.1 25,2.3 C32.5,-1.2 53.2,-0.6 64.9,3.5 C70.4,5.5 76,9.8 76,12.1 C76,12.9 79,12 84.3,9.6 C94.6,4.8 99.9,3.5 109.2,3.5 C124.7,3.5 139,9.5 149.6,20.2 C157,27.7 163.7,39.7 162.7,43.7 C161.9,46.5 159.3,47.9 156.6,46.9 C154.3,46 154.6,43.5 157.1,43.5 C159,43.5 159.2,43.1 158.7,39.6 C157.6,31 149.8,20.7 139,13.4 C132.1,8.8 119.9,5.3 110.5,5.2 C100.7,5.1 93.7,6.7 84.5,11.1 C78.5,13.9 77.2,15 75.6,18.5 C74.6,20.8 74.2,23 74.6,23.4 C80.9,28.8 85.1,31.4 88.5,32 C101.2,34.1 119.2,40.8 127.4,46.4 C134.6,51.4 135.8,58.5 129.5,58.5 C125.8,58.5 108.2,49.3 95.2,40.5 C83.6,32.7 82.6,32.2 75.7,31.4 C71.8,31 67.9,30.6 67.2,30.5 C64.2,30.4 71.2,37.9 77.2,41.2 C94,50.5 113.8,65.6 121.1,74.6 C126.3,81 127.4,83.3 125.9,85.1 C124,87.4 120.8,86.7 114.2,82.8 C102,75.3 87.3,61.2 74.2,44.5 C70.6,39.7 67.8,37.3 64.2,35.6 L59.2,33.3 L50.9,37.8 C37.2,45.3 28.7,51.6 26.7,55.7 C25.1,58.9 25.1,59.7 26.3,62.7 C29.2,69.6 41.8,78.1 56.3,83 C64.7,85.8 77.7,87.2 82.5,85.7 C85.1,84.9 85.5,84.4 85.4,81.3 C85.3,77.1 80.6,69.6 71.6,59.5 C68,55.4 65.5,51.8 66.1,51.6 C66.7,51.4 68.6,53 70.3,55.1 C86.5,74.5 91,81.7 89.1,85.3 C86.6,90 78.1,90.6 64,87 L64,87 Z M119.7,76.2 C114.7,68.9 101.8,58.4 86,48.5 C81.3,45.6 76.4,42.5 75,41.6 C68.5,37.5 93.6,64.7 103.3,72.2 C110.7,78 122.3,84.1 122.8,82.5 C123,81.9 121.6,79 119.7,76.2 L119.7,76.2 Z M130,54.5 C130,52.4 121.1,45.2 114.5,42 C108.2,39 91.6,33.5 88.6,33.5 C88,33.5 90.9,35.8 95,38.5 C112.5,50.3 130,58.3 130,54.5 L130,54.5 Z M27.5,44.9 C34,42.6 46.3,35.9 52,31.4 L54.5,29.5 L44.5,29.6 C31.5,29.8 21.2,31.7 14.5,35 C8.6,37.8 3.7,42.8 4.2,45.4 C4.9,49 16.1,48.8 27.5,44.9 L27.5,44.9 Z M65.3,32.4 C64.1,31.2 62.7,30.6 62,31 C61.2,31.5 61.7,32.3 63.6,33.6 C67.1,35.9 68.1,35.1 65.3,32.4 L65.3,32.4 Z M60.5,30.5 C60.8,29.9 60.1,29.5 58.8,29.5 C57,29.5 56.8,29.7 58,30.5 C59.9,31.7 59.8,31.7 60.5,30.5 L60.5,30.5 Z M76.8,27.2 L72.5,23.9 L69.8,25.9 C68.2,27 67,28.2 67,28.6 C67,29.1 69.4,29.6 72.3,29.8 C75.1,30 78.3,30.2 79.3,30.3 C80.5,30.4 79.5,29.2 76.8,27.2 L76.8,27.2 Z M58.5,26.9 C60.1,25.7 60.2,25.1 59.3,23.7 C53.3,15 46.9,3.4 47.6,2.4 C48.6,0.7 31.3,1.8 27.5,3.6 C23.3,5.7 23.4,7.2 27.8,11.4 C32,15.2 53.5,28.5 55.4,28.5 C56,28.5 57.4,27.8 58.5,26.9 L58.5,26.9 Z M62,27.5 C62,27 61.6,26.5 61.1,26.5 C60.5,26.5 59.8,27 59.5,27.5 C59.2,28.1 59.6,28.5 60.4,28.5 C61.3,28.5 62,28.1 62,27.5 L62,27.5 Z M70.8,22.9 C70.9,22.8 70.5,22.3 69.8,21.7 C67.9,20.2 62.5,24.7 63.4,27.1 C64,28.6 64.4,28.5 67.3,25.9 C69,24.3 70.6,23 70.8,22.9 L70.8,22.9 Z M64.4,17.8 C62.8,16.4 59.3,13.5 56.6,11.3 C51,6.5 51,6.6 56.9,16.8 L61.3,24.4 L64.3,22.3 L67.3,20.2 L64.4,17.8 L64.4,17.8 Z M73.7,17.9 C72.8,16.9 69.9,19.5 70.6,20.7 C71,21.3 71.9,21.1 72.8,20.1 C73.7,19.3 74.1,18.2 73.7,17.9 L73.7,17.9 Z M72,16.6 C74.1,14.9 74.3,14.4 73.2,12.1 C72.6,10.7 70.6,8.6 68.8,7.5 C65.9,5.7 63.4,4.8 52.7,1.8 C51.7,1.6 54.9,5.2 59.7,9.9 C64.5,14.6 68.7,18.4 69,18.4 C69.3,18.5 70.6,17.6 72,16.6 L72,16.6 Z" id="Shape"></path>
        </g>
    </g>
</svg>